<svg id="Layer_1" data-name="Layer 1" xmlns="http://www.w3.org/2000/svg" viewBox="0 0 192 192"><defs><style>.cls-1,.cls-2{fill:none;stroke-linecap:round;stroke-width:5.00px;}.cls-1{stroke:#F07522;stroke-miterlimit:10;}.cls-2{stroke:#F07522;stroke-linejoin:round;}</style></defs><path class="cls-1" d="M46.6,62.46l.6-.41q1.53-1,3.12-2a86,86,0,0,1,92.48,1.71c.81.54,1.32.88,1.92,1.3"></path><path class="cls-1" d="M168.57,53.53a3,3,0,0,0-.65-3.91A116.74,116.74,0,0,0,51.85,32.53a105.86,105.86,0,0,0-16,7.88c-4.61,2.82-9.12,6.07-11.69,8a3,3,0,0,0-.76,4l70,114a3,3,0,0,0,5.1,0Z"></path><line class="cls-2" x1="77.73" y1="111.4" x2="92.06" y2="123.18"></line><line class="cls-2" x1="107.23" y1="72.5" x2="124.63" y2="66.07"></line><circle class="cls-2" cx="71.23" cy="81.29" r="8.61"></circle><circle class="cls-2" cx="115.23" cy="101.29" r="8.61"></circle></svg>